<svg width="64" height="64" viewBox="0 0 64 64" xmlns="http://www.w3.org/2000/svg">
  <path d="M31.77 3.1a3.2 3.2 0 0 1 3.12 0l20.54 11.9a3.2 3.2 0 0 1 1.56 2.74v23.52a3.2 3.2 0 0 1-1.56 2.74l-20.54 11.9a3.2 3.2 0 0 1-3.12 0L11.23 43.99a3.2 3.2 0 0 1-1.56-2.74V17.73a3.2 3.2 0 0 1 1.56-2.74L31.77 3.1z" fill="#3C873A"/>
  <path d="M32.03 11.34c5.6 0 10.14 4.52 10.14 10.11 0 4.35-2.74 8.02-6.64 9.5v6.8c0 0.92-0.74 1.66-1.66 1.66h-3.66a1.66 1.66 0 0 1-1.66-1.66v-8.19c0-0.92 0.74-1.66 1.66-1.66 2.58 0 4.68-2.11 4.68-4.68a4.7 4.7 0 0 0-9.4 0 1.66 1.66 0 0 1-1.66 1.66h-3.32a1.66 1.66 0 0 1-1.66-1.66c0-6.96 5.62-12.58 12.52-12.58z" fill="#ffffff"/>
</svg>
